<mxfile host="app.diagrams.net" modified="2024-04-02T03:17:48.476Z" agent="Mozilla/5.0 (Windows NT 10.0; Win64; x64) AppleWebKit/537.36 (KHTML, like Gecko) Chrome/115.0.0.0 Safari/537.36" version="24.2.1" etag="6EPFQLEbCDBOtVchRV8n" type="github">
  <diagram name="第 1 页" id="HypDTzGldLjuRlnmvrml">
    <mxGraphModel>
      <root>
        <mxCell id="0" />
        <mxCell id="1" parent="0" />
      </root>
    </mxGraphModel>
  </diagram>
</mxfile>
